<svg version="1.1" id="Layer_1" xmlns="http://www.w3.org/2000/svg" x="0" y="0" width="16" height="16" viewBox="0 0 16 16" xml:space="preserve"><g fill="#231f20"><path d="M8 11.7C5.9 11.7 4.3 10 4.3 8 4.3 5.9 6 4.3 8 4.3c2.1 0 3.7 1.7 3.7 3.7 0 2.1-1.6 3.7-3.7 3.7zM8 5C6.3 5 5 6.3 5 8s1.4 3 3 3c1.7 0 3-1.4 3-3 0-1.7-1.3-3-3-3z"/><path d="M10.4 15.5H5.6c-2.8 0-5.1-2.3-5.1-5.1V5.6C.5 2.8 2.8.5 5.6.5h4.9c2.8 0 5.1 2.3 5.1 5.1v4.9c-.1 2.7-2.4 5-5.2 5zM5.6 1.2c-2.4 0-4.4 2-4.4 4.4v4.9c0 2.4 2 4.4 4.4 4.4h4.9c2.4 0 4.4-2 4.4-4.4V5.6c0-2.4-2-4.4-4.4-4.4H5.6z"/><path d="M12.1 5.2l-1.3-1.3 1.3-1.3 1.3 1.3-1.3 1.3zm0-1.8l-.6.6.6.6.6-.6-.6-.6z"/></g></svg>