<svg version="1.1" id="Layer_1" xmlns="http://www.w3.org/2000/svg" x="0" y="0" width="16" height="16" viewBox="0 0 16 16" xml:space="preserve"><path d="M4.7 9.5h1v4.9c0 .6.5 1 1 1h1.9c.6 0 1-.5 1-1V9.5h1c.4-.1.8-.3 1-.7l.7-1.3v-.1c.1-.3 0-.6-.2-.8-.2-.2-.5-.4-.8-.4H9.7v-2h1.6c.6 0 1-.4 1-1V1.6c0-.6-.5-1-1-1h-2C6.8.6 5.7 2.1 5.7 5.2v1h-1c-.6 0-1 .5-1 1v1.3c0 .6.4 1 1 1zm-.3-2.3l.3-.3H6l.4-.4V5.2c0-2.7.9-3.9 2.9-3.9h2l.3.3v1.6l-.3.3h-2l-.4.4v2.7l.4.4h2.3l.1.2-.7 1.3-.3.3H9.3l-.4.4v5.3l-.3.3H6.7l-.3-.3V9.1L6 8.8H4.7l-.3-.3V7.2z" fill="#231f20"/></svg>